# Blender 3.4.0
# www.blender.org
mtllib Constructor3.mtl
o Cylinder
v 0.000000 -1.000000 -0.250000
v 0.000000 -1.000000 -0.500000
v 0.000000 1.000000 -0.500000
v 0.000000 1.000000 -0.250000
v 0.097545 -1.000000 -0.490393
v 0.048773 -1.000000 -0.245196
v 0.097545 1.000000 -0.490393
v 0.048773 1.000000 -0.245196
v 0.095671 -1.000000 -0.230970
v 0.191342 -1.000000 -0.461940
v 0.191342 1.000000 -0.461940
v 0.095671 1.000000 -0.230970
v 0.138893 -1.000000 -0.207867
v 0.277785 -1.000000 -0.415735
v 0.277785 1.000000 -0.415735
v 0.138893 1.000000 -0.207867
v 0.176777 -1.000000 -0.176777
v 0.353553 -1.000000 -0.353553
v 0.353553 1.000000 -0.353553
v 0.176777 1.000000 -0.176777
v 0.415735 -1.000000 -0.277785
v 0.207867 -1.000000 -0.138893
v 0.415735 1.000000 -0.277785
v 0.207867 1.000000 -0.138893
v 0.230970 -1.000000 -0.095671
v 0.461940 -1.000000 -0.191342
v 0.230970 1.000000 -0.095671
v 0.461940 1.000000 -0.191342
v 0.245196 -1.000000 -0.048773
v 0.490393 -1.000000 -0.097545
v 0.245196 1.000000 -0.048773
v 0.490393 1.000000 -0.097545
v 0.250000 -1.000000 0.000000
v 0.500000 -1.000000 0.000000
v 0.250000 1.000000 0.000000
v 0.500000 1.000000 0.000000
v -0.500000 -1.000000 0.000000
v -0.500000 1.000000 0.000000
v -0.490393 -1.000000 -0.097545
v -0.490393 1.000000 -0.097545
v -0.461940 -1.000000 -0.191342
v -0.461940 1.000000 -0.191342
v -0.415735 -1.000000 -0.277785
v -0.415735 1.000000 -0.277785
v -0.353553 -1.000000 -0.353553
v -0.353553 1.000000 -0.353553
v -0.277785 -1.000000 -0.415735
v -0.277785 1.000000 -0.415735
v -0.191342 -1.000000 -0.461940
v -0.191342 1.000000 -0.461940
v -0.097545 -1.000000 -0.490393
v -0.097545 1.000000 -0.490393
v -0.250000 -1.000000 0.000000
v -0.250000 1.000000 0.000000
v -0.245196 -1.000000 -0.048773
v -0.245196 1.000000 -0.048773
v -0.230970 -1.000000 -0.095671
v -0.230970 1.000000 -0.095671
v -0.207867 -1.000000 -0.138893
v -0.207867 1.000000 -0.138893
v -0.176777 -1.000000 -0.176777
v -0.176777 1.000000 -0.176777
v -0.138893 -1.000000 -0.207867
v -0.138893 1.000000 -0.207867
v -0.095671 -1.000000 -0.230970
v -0.095671 1.000000 -0.230970
v -0.048773 -1.000000 -0.245196
v -0.048773 1.000000 -0.245196
vn -0.0000 1.0000 -0.0000
vn -0.0000 -1.0000 -0.0000
vn -0.0000 -0.0000 1.0000
vn 0.1698 -0.4921 -0.8538
vn -0.0000 -0.4921 -0.8706
vn -0.0000 0.4921 -0.8706
vn 0.1698 0.4921 -0.8538
vn 0.3332 0.4921 -0.8043
vn 0.3332 -0.4921 -0.8043
vn 0.4837 0.4921 -0.7238
vn 0.4837 -0.4921 -0.7238
vn 0.6156 0.4921 -0.6156
vn 0.6156 -0.4921 -0.6156
vn 0.7238 0.4921 -0.4837
vn 0.7238 -0.4921 -0.4837
vn 0.8043 0.4921 -0.3332
vn 0.8043 -0.4921 -0.3332
vn 0.8538 0.4921 -0.1698
vn 0.8538 -0.4921 -0.1698
vn 0.6834 0.3863 0.6194
vn 0.6834 -0.3863 0.6194
vn -0.8538 -0.4921 -0.1698
vn -0.6834 -0.3863 0.6194
vn -0.6834 0.3863 0.6194
vn -0.8538 0.4921 -0.1698
vn -0.8043 0.4921 -0.3332
vn -0.8043 -0.4921 -0.3332
vn -0.7238 0.4921 -0.4837
vn -0.7238 -0.4921 -0.4837
vn -0.6156 -0.4921 -0.6156
vn -0.6156 0.4921 -0.6156
vn -0.4837 0.4921 -0.7238
vn -0.4837 -0.4921 -0.7238
vn -0.3332 0.4921 -0.8043
vn -0.3332 -0.4921 -0.8043
vn -0.1698 0.4921 -0.8538
vn -0.1698 -0.4921 -0.8538
vn -0.0000 0.4921 0.8706
vn -0.0000 -0.4921 0.8706
vn -0.1698 -0.4921 0.8538
vn -0.1698 0.4921 0.8538
vn -0.3331 -0.4921 0.8043
vn -0.3331 0.4921 0.8043
vn -0.4837 -0.4921 0.7238
vn -0.4837 0.4921 0.7238
vn -0.6156 -0.4921 0.6156
vn -0.6156 0.4921 0.6156
vn -0.7238 0.4921 0.4837
vn -0.7238 -0.4921 0.4837
vn -0.8043 0.4921 0.3331
vn -0.8043 -0.4921 0.3331
vn -0.8538 0.4921 0.1698
vn -0.8538 -0.4921 0.1698
vn -0.6169 -0.3952 0.6806
vn -0.6169 0.3952 0.6806
vn 0.8538 -0.4921 0.1698
vn 0.8538 0.4921 0.1698
vn 0.6169 0.3952 0.6806
vn 0.6169 -0.3952 0.6806
vn 0.8043 -0.4921 0.3331
vn 0.8043 0.4921 0.3331
vn 0.7238 -0.4921 0.4837
vn 0.7238 0.4921 0.4837
vn 0.6156 -0.4921 0.6156
vn 0.6156 0.4921 0.6156
vn 0.4837 -0.4921 0.7238
vn 0.4837 0.4921 0.7238
vn 0.3331 -0.4921 0.8043
vn 0.3331 0.4921 0.8043
vn 0.1698 -0.4921 0.8538
vn 0.1698 0.4921 0.8538
vt 0.750000 0.350000
vt 1.000000 0.500000
vt 0.000000 0.500000
vt 0.750000 0.450000
vt 1.000000 0.500000
vt 0.000000 0.500000
vt 0.250000 0.450000
vt 1.000000 1.000000
vt 0.000000 1.000000
vt 0.250000 0.350000
vt 1.000000 1.000000
vt 0.000000 1.000000
vt 0.789018 0.446157
vt 0.968750 0.500000
vt 0.769509 0.348078
vt 0.968750 0.500000
vt 0.289018 0.446157
vt 0.968750 1.000000
vt 0.269509 0.348079
vt 0.968750 1.000000
vt 0.788268 0.342388
vt 0.937500 0.500000
vt 0.826537 0.434776
vt 0.937500 0.500000
vt 0.326537 0.434776
vt 0.937500 1.000000
vt 0.288268 0.342388
vt 0.937500 1.000000
vt 0.805557 0.333147
vt 0.906250 0.500000
vt 0.861114 0.416294
vt 0.906250 0.500000
vt 0.361114 0.416294
vt 0.906250 1.000000
vt 0.305557 0.333147
vt 0.906250 1.000000
vt 0.820711 0.320711
vt 0.875000 0.500000
vt 0.891421 0.391421
vt 0.875000 0.500000
vt 0.391421 0.391421
vt 0.875000 1.000000
vt 0.320711 0.320711
vt 0.875000 1.000000
vt 0.916294 0.361114
vt 0.843750 0.500000
vt 0.833147 0.305557
vt 0.843750 0.500000
vt 0.416294 0.361114
vt 0.843750 1.000000
vt 0.333147 0.305557
vt 0.843750 1.000000
vt 0.842388 0.288268
vt 0.812500 0.500000
vt 0.934776 0.326537
vt 0.812500 0.500000
vt 0.342388 0.288268
vt 0.812500 1.000000
vt 0.434776 0.326537
vt 0.812500 1.000000
vt 0.848078 0.269509
vt 0.781250 0.500000
vt 0.946157 0.289018
vt 0.781250 0.500000
vt 0.348079 0.269509
vt 0.781250 1.000000
vt 0.446157 0.289018
vt 0.781250 1.000000
vt 0.850000 0.250000
vt 0.375000 0.406250
vt 0.750000 0.500000
vt 0.950000 0.250000
vt 0.375000 0.437500
vt 0.750000 0.500000
vt 0.350000 0.250000
vt 0.625000 0.406250
vt 0.750000 1.000000
vt 0.450000 0.250000
vt 0.625000 0.437500
vt 0.750000 1.000000
vt 0.550000 0.250000
vt 0.375000 0.312500
vt 0.250000 0.500000
vt 0.050000 0.250000
vt 0.625000 0.312500
vt 0.250000 1.000000
vt 0.553843 0.289018
vt 0.218750 0.500000
vt 0.053843 0.289018
vt 0.218750 1.000000
vt 0.565224 0.326537
vt 0.187500 0.500000
vt 0.065224 0.326537
vt 0.187500 1.000000
vt 0.583706 0.361114
vt 0.156250 0.500000
vt 0.083706 0.361114
vt 0.156250 1.000000
vt 0.608579 0.391421
vt 0.125000 0.500000
vt 0.108579 0.391421
vt 0.125000 1.000000
vt 0.638886 0.416294
vt 0.093750 0.500000
vt 0.138886 0.416294
vt 0.093750 1.000000
vt 0.673463 0.434776
vt 0.062500 0.500000
vt 0.173463 0.434776
vt 0.062500 1.000000
vt 0.710982 0.446157
vt 0.031250 0.500000
vt 0.210982 0.446157
vt 0.031250 1.000000
vt 0.650000 0.250000
vt 0.375000 0.343750
vt 0.250000 0.500000
vt 0.150000 0.250000
vt 0.625000 0.343750
vt 0.250000 1.000000
vt 0.651921 0.269509
vt 0.218750 0.500000
vt 0.151921 0.269509
vt 0.218750 1.000000
vt 0.657612 0.288268
vt 0.187500 0.500000
vt 0.157612 0.288268
vt 0.187500 1.000000
vt 0.666853 0.305557
vt 0.156250 0.500000
vt 0.166853 0.305557
vt 0.156250 1.000000
vt 0.679289 0.320711
vt 0.125000 0.500000
vt 0.179289 0.320711
vt 0.125000 1.000000
vt 0.694443 0.333147
vt 0.093750 0.500000
vt 0.194443 0.333147
vt 0.093750 1.000000
vt 0.711732 0.342388
vt 0.062500 0.500000
vt 0.211732 0.342388
vt 0.062500 1.000000
vt 0.730491 0.348078
vt 0.031250 0.500000
vt 0.230491 0.348079
vt 0.031250 1.000000
s 0
f 32/67/1 28/59/1 23/49/1 19/41/1 15/33/1 11/25/1 7/17/1 3/7/1 52/113/1 50/109/1 48/105/1 46/101/1 44/97/1 42/93/1 40/89/1 38/84/1 54/118/1 56/123/1 58/127/1 60/131/1 62/135/1 64/139/1 66/143/1 68/147/1 4/10/1 8/19/1 12/27/1 16/35/1 20/43/1 24/51/1 27/57/1 31/65/1 35/75/1 36/78/1
f 51/111/2 2/4/2 5/13/2 10/23/2 14/31/2 18/39/2 21/45/2 26/55/2 30/63/2 34/72/2 33/69/2 29/61/2 25/53/2 22/47/2 17/37/2 13/29/2 9/21/2 6/15/2 1/1/2 67/145/2 65/141/2 63/137/2 61/133/2 59/129/2 57/125/2 55/121/2 53/115/2 37/81/2 39/87/2 41/91/2 43/95/2 45/99/2 47/103/2 49/107/2
f 33/70/3 34/73/3 36/79/3 35/76/3
f 38/85/3 37/82/3 53/116/3 54/119/3
s 1
f 5/14/4 2/5/5 3/8/6 7/18/7
f 7/18/7 11/26/8 10/24/9 5/14/4
f 11/26/8 15/34/10 14/32/11 10/24/9
f 15/34/10 19/42/12 18/40/13 14/32/11
f 18/40/13 19/42/12 23/50/14 21/46/15
f 28/60/16 26/56/17 21/46/15 23/50/14
f 26/56/17 28/60/16 32/68/18 30/64/19
f 30/64/19 32/68/18 36/80/20 34/74/21
f 39/88/22 37/83/23 38/86/24 40/90/25
f 40/90/25 42/94/26 41/92/27 39/88/22
f 42/94/26 44/98/28 43/96/29 41/92/27
f 45/100/30 43/96/29 44/98/28 46/102/31
f 46/102/31 48/106/32 47/104/33 45/100/30
f 48/106/32 50/110/34 49/108/35 47/104/33
f 50/110/34 52/114/36 51/112/37 49/108/35
f 52/114/36 3/9/6 2/6/5 51/112/37
f 4/11/38 1/2/39 6/16/40 8/20/41
f 8/20/41 6/16/40 9/22/42 12/28/43
f 12/28/43 9/22/42 13/30/44 16/36/45
f 17/38/46 20/44/47 16/36/45 13/30/44
f 24/52/48 20/44/47 17/38/46 22/48/49
f 27/58/50 24/52/48 22/48/49 25/54/51
f 31/66/52 27/58/50 25/54/51 29/62/53
f 29/62/53 33/71/54 35/77/55 31/66/52
f 55/122/56 56/124/57 54/120/58 53/117/59
f 57/126/60 58/128/61 56/124/57 55/122/56
f 58/128/61 57/126/60 59/130/62 60/132/63
f 60/132/63 59/130/62 61/134/64 62/136/65
f 62/136/65 61/134/64 63/138/66 64/140/67
f 64/140/67 63/138/66 65/142/68 66/144/69
f 66/144/69 65/142/68 67/146/70 68/148/71
f 67/146/70 1/3/39 4/12/38 68/148/71
