# Blender 3.4.0
# www.blender.org
mtllib Constructor2.mtl
o Cylinder
v 0.000000 -1.000000 -0.750000
v 0.000000 -1.000000 -0.500000
v 0.000000 1.000000 -0.750000
v 0.000000 1.000000 -0.500000
v 0.146318 -1.000000 -0.735589
v 0.097545 -1.000000 -0.490393
v 0.146318 1.000000 -0.735589
v 0.097545 1.000000 -0.490393
v 0.287013 -1.000000 -0.692910
v 0.191342 -1.000000 -0.461940
v 0.287013 1.000000 -0.692910
v 0.191342 1.000000 -0.461940
v 0.277785 -1.000000 -0.415735
v 0.416678 -1.000000 -0.623602
v 0.416678 1.000000 -0.623602
v 0.277785 1.000000 -0.415735
v 0.353553 -1.000000 -0.353553
v 0.530330 -1.000000 -0.530330
v 0.530330 1.000000 -0.530330
v 0.353553 1.000000 -0.353553
v 0.623602 -1.000000 -0.416678
v 0.415735 -1.000000 -0.277785
v 0.623602 1.000000 -0.416678
v 0.415735 1.000000 -0.277785
v 0.461940 -1.000000 -0.191342
v 0.692910 -1.000000 -0.287013
v 0.692910 1.000000 -0.287013
v 0.461940 1.000000 -0.191342
v 0.490393 -1.000000 -0.097545
v 0.735589 -1.000000 -0.146318
v 0.490393 1.000000 -0.097545
v 0.735589 1.000000 -0.146318
v 0.500000 -1.000000 0.000000
v 0.750000 -1.000000 0.000000
v 0.750000 1.000000 0.000000
v 0.500000 1.000000 0.000000
v -0.500000 -1.000000 0.000000
v -0.750000 -1.000000 0.000000
v -0.750000 1.000000 0.000000
v -0.500000 1.000000 0.000000
v -0.735589 -1.000000 -0.146318
v -0.490393 -1.000000 -0.097545
v -0.490393 1.000000 -0.097545
v -0.735589 1.000000 -0.146318
v -0.461940 -1.000000 -0.191342
v -0.692910 -1.000000 -0.287013
v -0.692910 1.000000 -0.287013
v -0.461940 1.000000 -0.191342
v -0.415735 -1.000000 -0.277785
v -0.623602 -1.000000 -0.416678
v -0.623602 1.000000 -0.416678
v -0.415735 1.000000 -0.277785
v -0.353553 -1.000000 -0.353553
v -0.530330 -1.000000 -0.530330
v -0.530330 1.000000 -0.530330
v -0.353553 1.000000 -0.353553
v -0.277785 -1.000000 -0.415735
v -0.416678 -1.000000 -0.623602
v -0.277785 1.000000 -0.415735
v -0.416678 1.000000 -0.623602
v -0.191342 -1.000000 -0.461940
v -0.287013 -1.000000 -0.692910
v -0.191342 1.000000 -0.461940
v -0.287013 1.000000 -0.692910
v -0.146318 -1.000000 -0.735589
v -0.097545 -1.000000 -0.490393
v -0.097545 1.000000 -0.490393
v -0.146318 1.000000 -0.735589
vn -0.0000 1.0000 -0.0000
vn -0.0000 -1.0000 -0.0000
vn -0.0000 -0.0000 1.0000
vn -0.0000 0.6857 0.7279
vn -0.0000 -0.6857 0.7279
vn -0.1420 -0.6857 0.7139
vn -0.1420 0.6857 0.7139
vn -0.2786 -0.6857 0.6725
vn -0.2786 0.6857 0.6725
vn -0.4044 -0.6857 0.6052
vn -0.4044 0.6857 0.6052
vn -0.5147 -0.6857 0.5147
vn -0.5147 0.6857 0.5147
vn -0.6052 -0.6857 0.4044
vn -0.6052 0.6857 0.4044
vn -0.6725 0.6857 0.2786
vn -0.6725 -0.6857 0.2786
vn -0.7139 -0.6857 0.1420
vn -0.7139 0.6857 0.1420
vn -0.5458 0.5827 0.6022
vn -0.5458 -0.5827 0.6022
vn 0.5458 0.5827 0.6022
vn 0.5458 -0.5827 0.6022
vn 0.7139 -0.6857 0.1420
vn 0.7139 0.6857 0.1420
vn 0.6725 -0.6857 0.2786
vn 0.6725 0.6857 0.2786
vn 0.6052 -0.6857 0.4044
vn 0.6052 0.6857 0.4044
vn 0.5147 -0.6857 0.5147
vn 0.5147 0.6857 0.5147
vn 0.4044 -0.6857 0.6052
vn 0.4044 0.6857 0.6052
vn 0.2786 -0.6857 0.6725
vn 0.2786 0.6857 0.6725
vn 0.1420 -0.6857 0.7139
vn 0.1420 0.6857 0.7139
vn -0.0000 0.6857 -0.7279
vn 0.1420 0.6857 -0.7139
vn 0.1420 -0.6857 -0.7139
vn -0.0000 -0.6857 -0.7279
vn 0.2786 -0.6857 -0.6725
vn 0.2786 0.6857 -0.6725
vn 0.4044 0.6857 -0.6052
vn 0.4044 -0.6857 -0.6052
vn 0.5147 0.6857 -0.5147
vn 0.5147 -0.6857 -0.5147
vn 0.6052 0.6857 -0.4044
vn 0.6052 -0.6857 -0.4044
vn 0.6725 0.6857 -0.2786
vn 0.6725 -0.6857 -0.2786
vn 0.7139 0.6857 -0.1420
vn 0.7139 -0.6857 -0.1420
vn 0.6076 0.5724 0.5507
vn 0.6076 -0.5724 0.5507
vn -0.6076 0.5724 0.5507
vn -0.7139 0.6857 -0.1420
vn -0.7139 -0.6857 -0.1420
vn -0.6076 -0.5724 0.5507
vn -0.6725 0.6857 -0.2786
vn -0.6725 -0.6857 -0.2786
vn -0.6052 0.6857 -0.4044
vn -0.6052 -0.6857 -0.4044
vn -0.5147 0.6857 -0.5147
vn -0.5147 -0.6857 -0.5147
vn -0.4044 0.6857 -0.6052
vn -0.4044 -0.6857 -0.6052
vn -0.2786 0.6857 -0.6725
vn -0.2786 -0.6857 -0.6725
vn -0.1420 0.6857 -0.7139
vn -0.1420 -0.6857 -0.7139
vt 0.750000 0.430000
vt 1.000000 0.500000
vt 0.000000 0.500000
vt 0.750000 0.370000
vt 1.000000 0.500000
vt 0.000000 0.500000
vt 0.250000 0.430000
vt 1.000000 1.000000
vt 0.000000 1.000000
vt 0.250000 0.370000
vt 1.000000 1.000000
vt 0.000000 1.000000
vt 0.785116 0.426541
vt 0.968750 0.500000
vt 0.773411 0.367694
vt 0.968750 0.500000
vt 0.285116 0.426541
vt 0.968750 1.000000
vt 0.273411 0.367694
vt 0.968750 1.000000
vt 0.818883 0.416298
vt 0.937500 0.500000
vt 0.795922 0.360866
vt 0.937500 0.500000
vt 0.318883 0.416298
vt 0.937500 1.000000
vt 0.295922 0.360866
vt 0.937500 1.000000
vt 0.816669 0.349776
vt 0.906250 0.500000
vt 0.850003 0.399664
vt 0.906250 0.500000
vt 0.350003 0.399664
vt 0.906250 1.000000
vt 0.316668 0.349776
vt 0.906250 1.000000
vt 0.834853 0.334853
vt 0.875000 0.500000
vt 0.877279 0.377279
vt 0.875000 0.500000
vt 0.377279 0.377279
vt 0.875000 1.000000
vt 0.334853 0.334853
vt 0.875000 1.000000
vt 0.899665 0.350003
vt 0.843750 0.500000
vt 0.849776 0.316668
vt 0.843750 0.500000
vt 0.399664 0.350003
vt 0.843750 1.000000
vt 0.349776 0.316668
vt 0.843750 1.000000
vt 0.860866 0.295922
vt 0.812500 0.500000
vt 0.916299 0.318883
vt 0.812500 0.500000
vt 0.416298 0.318883
vt 0.812500 1.000000
vt 0.360866 0.295922
vt 0.812500 1.000000
vt 0.867694 0.273411
vt 0.781250 0.500000
vt 0.926541 0.285116
vt 0.781250 0.500000
vt 0.367694 0.273411
vt 0.781250 1.000000
vt 0.426541 0.285116
vt 0.781250 1.000000
vt 0.870000 0.250000
vt 0.375000 0.437500
vt 0.750000 0.500000
vt 0.930000 0.250000
vt 0.375000 0.468750
vt 0.750000 0.500000
vt 0.430000 0.250000
vt 0.625000 0.468750
vt 0.750000 1.000000
vt 0.370000 0.250000
vt 0.625000 0.437500
vt 0.750000 1.000000
vt 0.630000 0.250000
vt 0.375000 0.312500
vt 0.250000 0.500000
vt 0.570000 0.250000
vt 0.375000 0.281250
vt 0.250000 0.500000
vt 0.070000 0.250000
vt 0.625000 0.281250
vt 0.250000 1.000000
vt 0.130000 0.250000
vt 0.625000 0.312500
vt 0.250000 1.000000
vt 0.573459 0.285116
vt 0.218750 0.500000
vt 0.632306 0.273411
vt 0.218750 0.500000
vt 0.132306 0.273411
vt 0.218750 1.000000
vt 0.073459 0.285116
vt 0.218750 1.000000
vt 0.639134 0.295922
vt 0.187500 0.500000
vt 0.583702 0.318883
vt 0.187500 0.500000
vt 0.083702 0.318883
vt 0.187500 1.000000
vt 0.139134 0.295922
vt 0.187500 1.000000
vt 0.650224 0.316668
vt 0.156250 0.500000
vt 0.600336 0.350003
vt 0.156250 0.500000
vt 0.100336 0.350003
vt 0.156250 1.000000
vt 0.150224 0.316668
vt 0.156250 1.000000
vt 0.665147 0.334853
vt 0.125000 0.500000
vt 0.622721 0.377279
vt 0.125000 0.500000
vt 0.122721 0.377279
vt 0.125000 1.000000
vt 0.165147 0.334853
vt 0.125000 1.000000
vt 0.683332 0.349776
vt 0.093750 0.500000
vt 0.649997 0.399664
vt 0.093750 0.500000
vt 0.183332 0.349776
vt 0.093750 1.000000
vt 0.149997 0.399664
vt 0.093750 1.000000
vt 0.704078 0.360866
vt 0.062500 0.500000
vt 0.681117 0.416298
vt 0.062500 0.500000
vt 0.204078 0.360866
vt 0.062500 1.000000
vt 0.181117 0.416298
vt 0.062500 1.000000
vt 0.714884 0.426541
vt 0.031250 0.500000
vt 0.726589 0.367694
vt 0.031250 0.500000
vt 0.226589 0.367694
vt 0.031250 1.000000
vt 0.214884 0.426541
vt 0.031250 1.000000
s 0
f 19/41/1 15/33/1 11/25/1 7/17/1 3/7/1 68/147/1 64/139/1 60/131/1 55/121/1 51/113/1 47/105/1 44/99/1 39/87/1 40/90/1 43/97/1 48/107/1 52/115/1 56/123/1 59/129/1 63/137/1 67/145/1 4/10/1 8/19/1 12/27/1 16/35/1 20/43/1 24/51/1 28/59/1 31/65/1 36/78/1 35/75/1 32/67/1 27/57/1 23/49/1
f 34/72/2 33/69/2 29/61/2 25/53/2 22/47/2 17/37/2 13/29/2 10/23/2 6/15/2 2/4/2 66/143/2 61/133/2 57/125/2 53/117/2 49/109/2 45/101/2 42/95/2 37/81/2 38/84/2 41/93/2 46/103/2 50/111/2 54/119/2 58/127/2 62/135/2 65/141/2 1/1/2 5/13/2 9/21/2 14/31/2 18/39/2 21/45/2 26/55/2 30/63/2
f 37/82/3 40/91/3 39/88/3 38/85/3
f 35/76/3 36/79/3 33/70/3 34/73/3
s 1
f 4/11/4 2/5/5 6/16/6 8/20/7
f 8/20/7 6/16/6 10/24/8 12/28/9
f 13/30/10 16/36/11 12/28/9 10/24/8
f 16/36/11 13/30/10 17/38/12 20/44/13
f 17/38/12 22/48/14 24/52/15 20/44/13
f 28/60/16 24/52/15 22/48/14 25/54/17
f 25/54/17 29/62/18 31/66/19 28/60/16
f 36/80/20 31/66/19 29/62/18 33/71/21
f 40/92/22 37/83/23 42/96/24 43/98/25
f 45/102/26 48/108/27 43/98/25 42/96/24
f 48/108/27 45/102/26 49/110/28 52/116/29
f 53/118/30 56/124/31 52/116/29 49/110/28
f 56/124/31 53/118/30 57/126/32 59/130/33
f 59/130/33 57/126/32 61/134/34 63/138/35
f 63/138/35 61/134/34 66/144/36 67/146/37
f 66/144/36 2/6/5 4/12/4 67/146/37
f 3/8/38 7/18/39 5/14/40 1/2/41
f 9/22/42 5/14/40 7/18/39 11/26/43
f 11/26/43 15/34/44 14/32/45 9/22/42
f 15/34/44 19/42/46 18/40/47 14/32/45
f 18/40/47 19/42/46 23/50/48 21/46/49
f 27/58/50 26/56/51 21/46/49 23/50/48
f 32/68/52 30/64/53 26/56/51 27/58/50
f 30/64/53 32/68/52 35/77/54 34/74/55
f 39/89/56 44/100/57 41/94/58 38/86/59
f 44/100/57 47/106/60 46/104/61 41/94/58
f 47/106/60 51/114/62 50/112/63 46/104/61
f 51/114/62 55/122/64 54/120/65 50/112/63
f 55/122/64 60/132/66 58/128/67 54/120/65
f 60/132/66 64/140/68 62/136/69 58/128/67
f 68/148/70 65/142/71 62/136/69 64/140/68
f 3/9/38 1/3/41 65/142/71 68/148/70
