# Blender 3.4.0
# www.blender.org
mtllib Constructor1.mtl
o Cylinder
v 0.000000 -1.000000 -1.000000
v 0.000000 -1.000000 -0.750000
v 0.000000 1.000000 -1.000000
v 0.000000 1.000000 -0.750000
v 0.195090 -1.000000 -0.980785
v 0.146318 -1.000000 -0.735589
v 0.195090 1.000000 -0.980785
v 0.146318 1.000000 -0.735589
v 0.382683 -1.000000 -0.923880
v 0.287013 -1.000000 -0.692910
v 0.382683 1.000000 -0.923880
v 0.287013 1.000000 -0.692910
v 0.555570 -1.000000 -0.831470
v 0.416678 -1.000000 -0.623602
v 0.555570 1.000000 -0.831470
v 0.416678 1.000000 -0.623602
v 0.707107 -1.000000 -0.707107
v 0.530330 -1.000000 -0.530330
v 0.707107 1.000000 -0.707107
v 0.530330 1.000000 -0.530330
v 0.831470 -1.000000 -0.555570
v 0.623602 -1.000000 -0.416678
v 0.831470 1.000000 -0.555570
v 0.623602 1.000000 -0.416678
v 0.923880 -1.000000 -0.382683
v 0.692910 -1.000000 -0.287013
v 0.923880 1.000000 -0.382683
v 0.692910 1.000000 -0.287013
v 0.980785 -1.000000 -0.195090
v 0.735589 -1.000000 -0.146318
v 0.980785 1.000000 -0.195090
v 0.735589 1.000000 -0.146318
v 0.750000 -1.000000 0.000000
v 1.000000 -1.000000 0.000000
v 1.000000 1.000000 0.000000
v 0.750000 1.000000 0.000000
v -1.000000 -1.000000 0.000000
v -1.000000 1.000000 0.000000
v -0.980785 -1.000000 -0.195090
v -0.980785 1.000000 -0.195090
v -0.923880 -1.000000 -0.382683
v -0.923880 1.000000 -0.382683
v -0.831470 -1.000000 -0.555570
v -0.831470 1.000000 -0.555570
v -0.707107 -1.000000 -0.707107
v -0.707107 1.000000 -0.707107
v -0.555570 -1.000000 -0.831470
v -0.555570 1.000000 -0.831470
v -0.382683 -1.000000 -0.923880
v -0.382683 1.000000 -0.923880
v -0.195090 -1.000000 -0.980785
v -0.195090 1.000000 -0.980785
v -0.750000 -1.000000 0.000000
v -0.750000 1.000000 0.000000
v -0.735589 -1.000000 -0.146318
v -0.735589 1.000000 -0.146318
v -0.692910 -1.000000 -0.287013
v -0.692910 1.000000 -0.287013
v -0.623602 -1.000000 -0.416678
v -0.623602 1.000000 -0.416678
v -0.530330 -1.000000 -0.530330
v -0.530330 1.000000 -0.530330
v -0.416678 -1.000000 -0.623602
v -0.416678 1.000000 -0.623602
v -0.287013 -1.000000 -0.692910
v -0.287013 1.000000 -0.692910
v -0.146318 -1.000000 -0.735589
v -0.146318 1.000000 -0.735589
vn -0.0000 -0.6857 -0.7279
vn -0.0000 0.6857 -0.7279
vn 0.1420 0.6857 -0.7139
vn 0.1420 -0.6857 -0.7139
vn 0.2786 0.6857 -0.6725
vn 0.2786 -0.6857 -0.6725
vn 0.4044 0.6857 -0.6052
vn 0.4044 -0.6857 -0.6052
vn 0.5147 0.6857 -0.5147
vn 0.5147 -0.6857 -0.5147
vn 0.6052 0.6857 -0.4044
vn 0.6052 -0.6857 -0.4044
vn 0.6725 0.6857 -0.2786
vn 0.6725 -0.6857 -0.2786
vn 0.7139 0.6857 -0.1420
vn 0.7139 -0.6857 -0.1420
vn 0.6076 0.5724 0.5507
vn 0.6076 -0.5724 0.5507
vn -0.6076 -0.5724 0.5507
vn -0.6076 0.5724 0.5507
vn -0.7139 0.6857 -0.1420
vn -0.7139 -0.6857 -0.1420
vn -0.6725 0.6857 -0.2786
vn -0.6725 -0.6857 -0.2786
vn -0.6052 0.6857 -0.4044
vn -0.6052 -0.6857 -0.4044
vn -0.5147 0.6857 -0.5147
vn -0.5147 -0.6857 -0.5147
vn -0.4044 0.6857 -0.6052
vn -0.4044 -0.6857 -0.6052
vn -0.2786 0.6857 -0.6725
vn -0.2786 -0.6857 -0.6725
vn -0.0000 1.0000 -0.0000
vn -0.1420 0.6857 -0.7139
vn -0.1420 -0.6857 -0.7139
vn -0.0000 -1.0000 -0.0000
vn -0.0000 -0.0000 1.0000
vn -0.0000 0.6857 0.7279
vn -0.0000 -0.6857 0.7279
vn -0.1420 -0.6857 0.7139
vn -0.1420 0.6857 0.7139
vn -0.2786 -0.6857 0.6725
vn -0.2786 0.6857 0.6725
vn -0.4044 -0.6857 0.6052
vn -0.4044 0.6857 0.6052
vn -0.5147 -0.6857 0.5147
vn -0.5147 0.6857 0.5147
vn -0.6052 -0.6857 0.4044
vn -0.6052 0.6857 0.4044
vn -0.6725 0.6857 0.2786
vn -0.6725 -0.6857 0.2786
vn -0.7139 -0.6857 0.1420
vn -0.7139 0.6857 0.1420
vn -0.5458 0.5827 0.6022
vn -0.5458 -0.5827 0.6022
vn 0.5458 0.5827 0.6022
vn 0.5458 -0.5827 0.6022
vn 0.7139 -0.6857 0.1420
vn 0.7139 0.6857 0.1420
vn 0.6725 -0.6857 0.2786
vn 0.6725 0.6857 0.2786
vn 0.6052 -0.6857 0.4044
vn 0.6052 0.6857 0.4044
vn 0.5147 -0.6857 0.5147
vn 0.5147 0.6857 0.5147
vn 0.4044 -0.6857 0.6052
vn 0.4044 0.6857 0.6052
vn 0.2786 -0.6857 0.6725
vn 0.2786 0.6857 0.6725
vn 0.1420 -0.6857 0.7139
vn 0.1420 0.6857 0.7139
vt 1.000000 0.500000
vt 0.000000 0.500000
vt 0.750000 0.490000
vt 0.750000 0.430000
vt 1.000000 0.500000
vt 0.000000 0.500000
vt 1.000000 1.000000
vt 0.250000 0.490000
vt 0.000000 1.000000
vt 0.250000 0.430000
vt 1.000000 1.000000
vt 0.000000 1.000000
vt 0.968750 0.500000
vt 0.796822 0.485388
vt 0.785116 0.426541
vt 0.968750 0.500000
vt 0.968750 1.000000
vt 0.296822 0.485388
vt 0.285116 0.426541
vt 0.968750 1.000000
vt 0.937500 0.500000
vt 0.841844 0.471731
vt 0.818883 0.416298
vt 0.937500 0.500000
vt 0.937500 1.000000
vt 0.341844 0.471731
vt 0.318883 0.416298
vt 0.937500 1.000000
vt 0.906250 0.500000
vt 0.883337 0.449553
vt 0.850003 0.399665
vt 0.906250 0.500000
vt 0.906250 1.000000
vt 0.383337 0.449553
vt 0.350003 0.399665
vt 0.906250 1.000000
vt 0.875000 0.500000
vt 0.919706 0.419706
vt 0.877279 0.377279
vt 0.875000 0.500000
vt 0.875000 1.000000
vt 0.419706 0.419706
vt 0.377279 0.377279
vt 0.875000 1.000000
vt 0.843750 0.500000
vt 0.949553 0.383337
vt 0.899665 0.350003
vt 0.843750 0.500000
vt 0.843750 1.000000
vt 0.449553 0.383337
vt 0.399665 0.350003
vt 0.843750 1.000000
vt 0.812500 0.500000
vt 0.971731 0.341844
vt 0.916298 0.318883
vt 0.812500 0.500000
vt 0.812500 1.000000
vt 0.471731 0.341844
vt 0.416298 0.318883
vt 0.812500 1.000000
vt 0.781250 0.500000
vt 0.985388 0.296822
vt 0.926541 0.285116
vt 0.781250 0.500000
vt 0.781250 1.000000
vt 0.485388 0.296822
vt 0.426541 0.285116
vt 0.781250 1.000000
vt 0.930000 0.250000
vt 0.375000 0.468750
vt 0.750000 0.500000
vt 0.750000 0.500000
vt 0.990000 0.250000
vt 0.375000 0.500000
vt 0.750000 1.000000
vt 0.490000 0.250000
vt 0.625000 0.500000
vt 0.430000 0.250000
vt 0.625000 0.468750
vt 0.750000 1.000000
vt 0.250000 0.500000
vt 0.510000 0.250000
vt 0.375000 0.250000
vt 0.250000 1.000000
vt 0.010000 0.250000
vt 0.625000 0.250000
vt 0.218750 0.500000
vt 0.514612 0.296822
vt 0.218750 1.000000
vt 0.014612 0.296822
vt 0.187500 0.500000
vt 0.528269 0.341844
vt 0.187500 1.000000
vt 0.028269 0.341844
vt 0.156250 0.500000
vt 0.550447 0.383337
vt 0.156250 1.000000
vt 0.050447 0.383337
vt 0.125000 0.500000
vt 0.580294 0.419706
vt 0.125000 1.000000
vt 0.080294 0.419706
vt 0.093750 0.500000
vt 0.616663 0.449553
vt 0.093750 1.000000
vt 0.116663 0.449553
vt 0.062500 0.500000
vt 0.658156 0.471731
vt 0.158156 0.471731
vt 0.062500 1.000000
vt 0.031250 0.500000
vt 0.703178 0.485388
vt 0.203178 0.485388
vt 0.031250 1.000000
vt 0.570000 0.250000
vt 0.375000 0.281250
vt 0.250000 0.500000
vt 0.070000 0.250000
vt 0.625000 0.281250
vt 0.250000 1.000000
vt 0.573459 0.285116
vt 0.218750 0.500000
vt 0.073459 0.285116
vt 0.218750 1.000000
vt 0.583702 0.318883
vt 0.187500 0.500000
vt 0.083702 0.318883
vt 0.187500 1.000000
vt 0.600335 0.350003
vt 0.156250 0.500000
vt 0.100335 0.350003
vt 0.156250 1.000000
vt 0.622721 0.377279
vt 0.125000 0.500000
vt 0.122721 0.377279
vt 0.125000 1.000000
vt 0.649997 0.399665
vt 0.093750 0.500000
vt 0.149997 0.399665
vt 0.093750 1.000000
vt 0.681117 0.416298
vt 0.062500 0.500000
vt 0.181117 0.416298
vt 0.062500 1.000000
vt 0.714884 0.426541
vt 0.031250 0.500000
vt 0.214884 0.426541
vt 0.031250 1.000000
s 1
f 1/1/1 3/7/2 7/17/3 5/13/4
f 5/13/4 7/17/3 11/25/5 9/21/6
f 9/21/6 11/25/5 15/33/7 13/29/8
f 13/29/8 15/33/7 19/41/9 17/37/10
f 17/37/10 19/41/9 23/49/11 21/45/12
f 21/45/12 23/49/11 27/57/13 25/53/14
f 25/53/14 27/57/13 31/65/15 29/61/16
f 29/61/16 31/65/15 35/75/17 34/72/18
f 37/81/19 38/84/20 40/89/21 39/87/22
f 39/87/22 40/89/21 42/93/23 41/91/24
f 41/91/24 42/93/23 44/97/25 43/95/26
f 43/95/26 44/97/25 46/101/27 45/99/28
f 45/99/28 46/101/27 48/105/29 47/103/30
f 47/103/30 48/105/29 50/110/31 49/107/32
s 0
f 35/76/33 31/66/33 27/58/33 23/50/33 19/42/33 15/34/33 11/26/33 7/18/33 3/8/33 52/113/33 50/109/33 48/106/33 46/102/33 44/98/33 42/94/33 40/90/33 38/85/33 54/118/33 56/123/33 58/127/33 60/131/33 62/135/33 64/139/33 66/143/33 68/147/33 4/10/33 8/19/33 12/27/33 16/35/33 20/43/33 24/51/33 28/59/33 32/67/33 36/78/33
s 1
f 49/107/32 50/110/31 52/114/34 51/111/35
f 51/111/35 52/114/34 3/9/2 1/2/1
s 0
f 39/88/36 41/92/36 43/96/36 45/100/36 47/104/36 49/108/36 51/112/36 1/3/36 5/14/36 9/22/36 13/30/36 17/38/36 21/46/36 25/54/36 29/62/36 34/73/36 33/69/36 30/63/36 26/55/36 22/47/36 18/39/36 14/31/36 10/23/36 6/15/36 2/4/36 67/145/36 65/141/36 63/137/36 61/133/36 59/129/36 57/125/36 55/121/36 53/115/36 37/82/36
f 38/86/37 37/83/37 53/116/37 54/119/37
f 34/74/37 35/77/37 36/79/37 33/70/37
s 1
f 4/11/38 2/5/39 6/16/40 8/20/41
f 8/20/41 6/16/40 10/24/42 12/28/43
f 12/28/43 10/24/42 14/32/44 16/36/45
f 16/36/45 14/32/44 18/40/46 20/44/47
f 18/40/46 22/48/48 24/52/49 20/44/47
f 28/60/50 24/52/49 22/48/48 26/56/51
f 28/60/50 26/56/51 30/64/52 32/68/53
f 36/80/54 32/68/53 30/64/52 33/71/55
f 54/120/56 53/117/57 55/122/58 56/124/59
f 57/126/60 58/128/61 56/124/59 55/122/58
f 58/128/61 57/126/60 59/130/62 60/132/63
f 61/134/64 62/136/65 60/132/63 59/130/62
f 62/136/65 61/134/64 63/138/66 64/140/67
f 64/140/67 63/138/66 65/142/68 66/144/69
f 67/146/70 68/148/71 66/144/69 65/142/68
f 67/146/70 2/6/39 4/12/38 68/148/71
