# Blender 3.4.0
# www.blender.org
mtllib FlyingPyramid.mtl
o Cube
v 1.000000 1.000000 -1.000000
v 1.000000 -1.000000 -1.000000
v -1.000000 1.000000 -1.000000
v -1.000000 -1.000000 -1.000000
v -0.000000 0.000000 1.000000
vn 0.8944 -0.0000 0.4472
vn -0.0000 0.8944 0.4472
vn -0.0000 -0.0000 -1.0000
vn -0.0000 -0.8944 0.4472
vn -0.8944 -0.0000 0.4472
vt 0.625000 0.500000
vt 0.375000 0.500000
vt 0.625000 0.250000
vt 0.375000 0.250000
vt 0.000000 0.000000
s 0
usemtl Material
f 1/1/1 5/5/1 2/2/1
f 5/5/2 1/1/2 3/3/2
f 4/4/3 3/3/3 1/1/3 2/2/3
f 4/4/4 2/2/4 5/5/4
f 5/5/5 3/3/5 4/4/5
