# Blender 3.4.0
# www.blender.org
mtllib Missile Battery.mtl
o Cube
v 0.750000 1.000000 -2.500000
v 1.000000 0.750000 -2.500000
v 1.000000 -0.750000 -2.500000
v 0.750000 -1.000000 -2.500000
v 1.000000 0.750000 2.500000
v 0.750000 1.000000 2.500000
v 0.750000 -1.000000 2.500000
v 1.000000 -0.750000 2.500000
v -1.000000 0.750000 -2.500000
v -0.750000 1.000000 -2.500000
v -0.750000 -1.000000 -2.500000
v -1.000000 -0.750000 -2.500000
v -0.750000 1.000000 2.500000
v -1.000000 0.750000 2.500000
v -1.000000 -0.750000 2.500000
v -0.750000 -1.000000 2.500000
v -0.600000 -0.800000 2.500000
v -0.800000 -0.600000 2.500000
v 0.600000 0.800000 2.500000
v 0.800000 0.600000 2.500000
v -0.800000 0.600000 2.500000
v -0.600000 0.800000 2.500000
v 0.800000 -0.600000 2.500000
v 0.600000 -0.800000 2.500000
v -0.600000 -0.800000 1.899224
v -0.800000 -0.600000 1.899224
v 0.600000 0.800000 1.899224
v 0.800000 0.600000 1.899224
v -0.800000 0.600000 1.899224
v -0.600000 0.800000 1.899224
v 0.800000 -0.600000 1.899224
v 0.600000 -0.800000 1.899224
vn -0.0000 -1.0000 -0.0000
vn -1.0000 -0.0000 -0.0000
vn -0.0000 -0.0000 1.0000
vn -0.0000 1.0000 -0.0000
vn 1.0000 -0.0000 -0.0000
vn -0.7071 -0.7071 -0.0000
vn 0.7071 0.7071 -0.0000
vn -0.7071 0.7071 -0.0000
vn 0.7071 -0.7071 -0.0000
vn -0.0000 -0.0000 -1.0000
vt 0.656250 0.500000
vt 0.625000 0.468750
vt 0.593750 0.500000
vt 0.406250 0.500000
vt 0.343750 0.500000
vt 0.375000 0.468750
vt 0.593750 0.750000
vt 0.656250 0.750000
vt 0.343750 0.750000
vt 0.406250 0.750000
vt 0.593750 0.250000
vt 0.843750 0.500000
vt 0.625000 0.250000
vt 0.625000 0.281250
vt 0.156250 0.500000
vt 0.375000 0.281250
vt 0.125000 0.500000
vt 0.406250 0.250000
vt 0.843750 0.750000
vt 0.625000 0.000000
vt 0.593750 0.000000
vt 0.125000 0.750000
vt 0.406250 0.000000
vt 0.156250 0.750000
vt 0.156250 0.750000
vt 0.125000 0.750000
vt 0.406250 0.000000
vt 0.656250 0.750000
vt 0.593750 0.750000
vt 0.593750 0.000000
vt 0.625000 0.000000
vt 0.843750 0.750000
vt 0.406250 0.750000
vt 0.343750 0.750000
vt 0.375000 0.968750
vt 0.156250 0.750000
vt 0.406250 1.000000
vt 0.125000 0.750000
vt 0.406250 0.000000
vt 0.625000 0.781250
vt 0.656250 0.750000
vt 0.593750 0.750000
vt 0.593750 1.000000
vt 0.593750 0.000000
vt 0.625000 0.968750
vt 0.625000 0.000000
vt 0.843750 0.750000
vt 0.406250 0.750000
vt 0.375000 0.781250
vt 0.343750 0.750000
s 0
usemtl Material
f 11/15/1 4/5/1 7/9/1 16/24/1
f 15/23/2 14/21/2 9/11/2 12/18/2
f 6/8/3 13/19/3 22/32/3 19/28/3
f 1/1/4 10/12/4 13/19/4 6/8/4
f 3/4/5 2/3/5 5/7/5 8/10/5
f 11/15/6 16/24/6 15/22/6 12/17/6
f 1/1/7 6/8/7 5/7/7 2/3/7
f 13/20/8 10/13/8 9/11/8 14/21/8
f 7/9/9 4/5/9 3/4/9 8/10/9
f 11/16/10 12/18/10 9/11/10 10/14/10 1/2/10 2/3/10 3/4/10 4/6/10
f 17/25/4 24/34/4 32/50/4 25/36/4
f 13/20/3 14/21/3 21/30/3 22/31/3
f 5/7/3 6/8/3 19/28/3 20/29/3
f 15/22/3 16/24/3 17/25/3 18/26/3
f 16/24/3 7/9/3 24/34/3 17/25/3
f 8/10/3 5/7/3 20/29/3 23/33/3
f 14/21/3 15/23/3 18/27/3 21/30/3
f 7/9/3 8/10/3 23/33/3 24/34/3
f 32/49/3 31/48/3 28/42/3 27/40/3 30/45/3 29/43/3 26/37/3 25/35/3
f 23/33/2 20/29/2 28/42/2 31/48/2
f 22/31/9 21/30/9 29/44/9 30/46/9
f 18/26/7 17/25/7 25/36/7 26/38/7
f 21/30/5 18/27/5 26/39/5 29/44/5
f 19/28/1 22/32/1 30/47/1 27/41/1
f 24/34/8 23/33/8 31/48/8 32/50/8
f 20/29/6 19/28/6 27/41/6 28/42/6
o Cone
v -0.039026 0.700974 1.893103
v -0.039026 0.039026 1.893103
v -0.700974 0.039026 1.893103
v -0.700974 0.700974 1.893103
v -0.370000 0.370000 2.829239
vn 0.9428 -0.0000 0.3333
vn -0.0000 -0.9428 0.3333
vn -0.0000 -0.0000 -1.0000
vn -0.9428 -0.0000 0.3333
vn -0.0000 0.9428 0.3333
vt 0.750000 0.490000
vt 0.250000 0.490000
vt 0.490000 0.250000
vt 0.990000 0.250000
vt 0.750000 0.010000
vt 0.250000 0.010000
vt 0.510000 0.250000
vt 0.010000 0.250000
vt 0.250000 0.250000
s 0
f 33/52/11 37/59/11 34/53/11
f 34/53/12 37/59/12 35/56/12
f 33/51/13 34/54/13 35/55/13 36/57/13
f 35/56/14 37/59/14 36/58/14
f 36/58/15 37/59/15 33/52/15
o Cone.001
v 0.700974 0.700974 1.893103
v 0.700974 0.039026 1.893103
v 0.039026 0.039026 1.893103
v 0.039026 0.700974 1.893103
v 0.370000 0.370000 2.829239
vn 0.9428 -0.0000 0.3333
vn -0.0000 -0.9428 0.3333
vn -0.0000 -0.0000 -1.0000
vn -0.9428 -0.0000 0.3333
vn -0.0000 0.9428 0.3333
vt 0.750000 0.490000
vt 0.250000 0.490000
vt 0.490000 0.250000
vt 0.990000 0.250000
vt 0.750000 0.010000
vt 0.250000 0.010000
vt 0.510000 0.250000
vt 0.010000 0.250000
vt 0.250000 0.250000
s 0
f 38/61/16 42/68/16 39/62/16
f 39/62/17 42/68/17 40/65/17
f 38/60/18 39/63/18 40/64/18 41/66/18
f 40/65/19 42/68/19 41/67/19
f 41/67/20 42/68/20 38/61/20
o Cone.002
v 0.700974 -0.039026 1.893103
v 0.700974 -0.700974 1.893103
v 0.039026 -0.700974 1.893103
v 0.039026 -0.039026 1.893103
v 0.370000 -0.370000 2.829239
vn 0.9428 -0.0000 0.3333
vn -0.0000 -0.9428 0.3333
vn -0.0000 -0.0000 -1.0000
vn -0.9428 -0.0000 0.3333
vn -0.0000 0.9428 0.3333
vt 0.750000 0.490000
vt 0.250000 0.490000
vt 0.490000 0.250000
vt 0.990000 0.250000
vt 0.750000 0.010000
vt 0.250000 0.010000
vt 0.510000 0.250000
vt 0.010000 0.250000
vt 0.250000 0.250000
s 0
f 43/70/21 47/77/21 44/71/21
f 44/71/22 47/77/22 45/74/22
f 43/69/23 44/72/23 45/73/23 46/75/23
f 45/74/24 47/77/24 46/76/24
f 46/76/25 47/77/25 43/70/25
o Cone.003
v -0.039026 -0.039026 1.893103
v -0.039026 -0.700974 1.893103
v -0.700974 -0.700974 1.893103
v -0.700974 -0.039026 1.893103
v -0.370000 -0.370000 2.829239
vn 0.9428 -0.0000 0.3333
vn -0.0000 -0.9428 0.3333
vn -0.0000 -0.0000 -1.0000
vn -0.9428 -0.0000 0.3333
vn -0.0000 0.9428 0.3333
vt 0.750000 0.490000
vt 0.250000 0.490000
vt 0.490000 0.250000
vt 0.990000 0.250000
vt 0.750000 0.010000
vt 0.250000 0.010000
vt 0.510000 0.250000
vt 0.010000 0.250000
vt 0.250000 0.250000
s 0
f 48/79/26 52/86/26 49/80/26
f 49/80/27 52/86/27 50/83/27
f 48/78/28 49/81/28 50/82/28 51/84/28
f 50/83/29 52/86/29 51/85/29
f 51/85/30 52/86/30 48/79/30
