# Blender 3.4.0
# www.blender.org
mtllib Pentagon.mtl
o Cylinder
v 0.000000 -0.750000 -1.000000
v 0.000000 0.750000 -1.000000
v 0.951057 -0.750000 -0.309017
v 0.951057 0.750000 -0.309017
v 0.587785 -0.750000 0.809017
v 0.587785 0.750000 0.809017
v -0.587785 -0.750000 0.809017
v -0.587785 0.750000 0.809017
v -0.951057 -0.750000 -0.309017
v -0.951057 0.750000 -0.309017
vn 0.5878 -0.0000 -0.8090
vn 0.9511 -0.0000 0.3090
vn -0.0000 -0.0000 1.0000
vn -0.0000 1.0000 -0.0000
vn -0.9511 -0.0000 0.3090
vn -0.5878 -0.0000 -0.8090
vn -0.0000 -1.0000 -0.0000
vt 1.000000 0.500000
vt 0.000000 0.500000
vt 0.750000 0.490000
vt 1.000000 1.000000
vt 0.250000 0.490000
vt 0.000000 1.000000
vt 0.800000 0.500000
vt 0.978254 0.324164
vt 0.800000 1.000000
vt 0.478254 0.324164
vt 0.600000 0.500000
vt 0.891068 0.055836
vt 0.600000 1.000000
vt 0.391068 0.055836
vt 0.400000 0.500000
vt 0.608932 0.055836
vt 0.108932 0.055836
vt 0.400000 1.000000
vt 0.200000 0.500000
vt 0.521746 0.324164
vt 0.021746 0.324164
vt 0.200000 1.000000
s 0
f 1/1/1 2/4/1 4/9/1 3/7/1
f 3/7/2 4/9/2 6/13/2 5/11/2
f 5/11/3 6/13/3 8/18/3 7/15/3
f 4/10/4 2/5/4 10/21/4 8/17/4 6/14/4
f 7/15/5 8/18/5 10/22/5 9/19/5
f 9/19/6 10/22/6 2/6/6 1/2/6
f 1/3/7 3/8/7 5/12/7 7/16/7 9/20/7
