# Blender 3.4.0
# www.blender.org
mtllib pyramid.mtl
o Cube
v 1.000000 -1.000000 -1.000000
v 1.000000 -1.000000 1.000000
v -1.000000 -1.000000 -1.000000
v -1.000000 -1.000000 1.000000
v 0.000000 1.000000 0.000000
vn -0.8944 0.4472 -0.0000
vn -0.0000 -1.0000 -0.0000
vn -0.0000 0.4472 -0.8944
vn 0.8944 0.4472 -0.0000
vn -0.0000 0.4472 0.8944
vt 0.375000 0.500000
vt 0.375000 0.750000
vt 0.125000 0.500000
vt 0.125000 0.750000
vt 0.000000 0.000000
s 0
usemtl Material
f 4/4/1 5/5/1 3/3/1
f 3/3/2 1/1/2 2/2/2 4/4/2
f 3/3/3 5/5/3 1/1/3
f 1/1/4 5/5/4 2/2/4
f 5/5/5 4/4/5 2/2/5
