# Blender 3.4.0
# www.blender.org
mtllib Wrench.mtl
o Plane
v 0.530508 0.000000 2.000000
v 0.229705 0.000000 -1.994531
v 0.448470 0.000000 -1.739191
v 0.492224 0.000000 0.196889
v 1.050077 0.000000 0.683644
v 1.115707 0.000000 1.607931
v 0.514100 0.000000 1.159460
v 0.000000 0.000000 -1.995094
v 0.000000 0.000000 0.824588
v -0.530508 0.000000 2.000000
v -0.229705 0.000000 -1.994531
v -0.448470 0.000000 -1.739191
v -0.492224 0.000000 0.196889
v -1.050077 0.000000 0.683644
v -1.115707 0.000000 1.607931
v -0.514100 0.000000 1.159460
v 0.229705 0.750000 -1.994531
v 0.448470 0.750000 -1.739191
v 0.492224 0.750000 0.196889
v 1.050077 0.750000 0.683644
v 1.115707 0.750000 1.607931
v 0.530508 0.750000 2.000000
v 0.514100 0.750000 1.159460
v 0.000000 0.750000 -1.995094
v 0.000000 0.750000 0.824588
v -0.229705 0.750000 -1.994531
v -0.448470 0.750000 -1.739191
v -0.492224 0.750000 0.196889
v -1.050077 0.750000 0.683644
v -1.115707 0.750000 1.607931
v -0.530508 0.750000 2.000000
v -0.514100 0.750000 1.159460
vn -0.0000 -1.0000 -0.0000
vn -0.0000 1.0000 -0.0000
vn -0.9998 -0.0000 0.0195
vn -0.5566 -0.0000 0.8308
vn 0.0025 -0.0000 -1.0000
vn 0.9998 -0.0000 0.0195
vn -0.5458 -0.0000 0.8379
vn 0.7594 -0.0000 -0.6506
vn -0.0025 -0.0000 -1.0000
vn 0.9997 -0.0000 -0.0226
vn 0.5458 -0.0000 0.8379
vn -0.7594 -0.0000 -0.6506
vn 0.6575 -0.0000 -0.7535
vn -0.9997 -0.0000 -0.0226
vn 0.9975 -0.0000 -0.0708
vn -0.6575 -0.0000 -0.7535
vn 0.5566 -0.0000 0.8308
vn -0.9975 -0.0000 -0.0708
vt 0.643565 0.000000
vt 0.571099 1.000000
vt 0.640831 0.936165
vt 0.649034 0.433003
vt 0.783029 0.300376
vt 0.778927 0.098017
vt 0.618954 0.165014
vt 0.512264 1.000000
vt 0.499862 0.234583
vt 0.643565 0.000000
vt 0.571099 1.000000
vt 0.640831 0.936165
vt 0.649034 0.433003
vt 0.783029 0.300376
vt 0.778927 0.098017
vt 0.618954 0.165014
vt 0.571099 1.000000
vt 0.640831 0.936165
vt 0.649034 0.433003
vt 0.783029 0.300376
vt 0.778927 0.098017
vt 0.643565 0.000000
vt 0.618954 0.165014
vt 0.512264 1.000000
vt 0.499862 0.234583
vt 0.571099 1.000000
vt 0.640831 0.936165
vt 0.649034 0.433003
vt 0.783029 0.300376
vt 0.778927 0.098017
vt 0.643565 0.000000
vt 0.618954 0.165014
s 0
f 8/8/1 2/2/1 3/3/1 4/4/1 5/5/1 6/6/1 1/1/1 7/7/1 9/9/1
f 8/8/1 9/9/1 16/16/1 10/10/1 15/15/1 14/14/1 13/13/1 12/12/1 11/11/1
f 24/24/2 25/25/2 23/23/2 22/22/2 21/21/2 20/20/2 19/19/2 18/18/2 17/17/2
f 24/24/2 26/26/2 27/27/2 28/28/2 29/29/2 30/30/2 31/31/2 32/32/2 25/25/2
f 7/7/3 1/1/3 22/22/3 23/23/3
f 15/15/4 10/10/4 31/31/4 30/30/4
f 2/2/5 8/8/5 24/24/5 17/17/5
f 10/10/6 16/16/6 32/32/6 31/31/6
f 9/9/7 7/7/7 23/23/7 25/25/7
f 3/3/8 2/2/8 17/17/8 18/18/8
f 8/8/9 11/11/9 26/26/9 24/24/9
f 4/4/10 3/3/10 18/18/10 19/19/10
f 16/16/11 9/9/11 25/25/11 32/32/11
f 11/11/12 12/12/12 27/27/12 26/26/12
f 5/5/13 4/4/13 19/19/13 20/20/13
f 12/12/14 13/13/14 28/28/14 27/27/14
f 6/6/15 5/5/15 20/20/15 21/21/15
f 13/13/16 14/14/16 29/29/16 28/28/16
f 1/1/17 6/6/17 21/21/17 22/22/17
f 14/14/18 15/15/18 30/30/18 29/29/18
